# xmcd
#
# Track frame offsets:
# 150
# 18103
# 33028
# 50611
# 68633
# 82392
# 97969
# 115672
# 131600
# 151720
# 167573
# 185754
# 203655
# 217768
# 235610
# 252468
# 267820
# 283560
#
# Disc length: 3986 seconds
#
#
# Revision: 0
# Processed by: cddbd v1.5.1PL0 Copyright (c) Steve Scherf et al.
# Submitted via: FreeRIP 2.51 
#
DISCID=e70f9012
DTITLE=Rhett Atkins - Friday Night In Dixie
DYEAR=1900
DGENRE=Country
TTITLE0=Highway Sunrise
TTITLE1=That Girl
TTITLE2=She Was
TTITLE3=In Your love
TTITLE4=You Rock Me Baby
TTITLE5=Friday Night In Dixie
TTITLE6=White Lies
TTITLE7=The Trouble With A Woman
TTITLE8=Livin' Not Lovin' You
TTITLE9=Right Back Atcha
TTITLE10=Wonder What Your Doin' Tonight
TTITLE11=Livin' Right
TTITLE12=Blacktop Ends
TTITLE13=That Ain't My Truck (Back Porch Acoustic Version)
TTITLE14=Drivin' My Life Away (Black Dog Soundtrack)
TTITLE15=Redneck Son
TTITLE16=Should Have Been A Cowboy
TTITLE17=Friends For Life
EXTD=
EXTT0=
EXTT1=
EXTT2=
EXTT3=
EXTT4=
EXTT5=
EXTT6=
EXTT7=
EXTT8=
EXTT9=
EXTT10=
EXTT11=
EXTT12=
EXTT13=
EXTT14=
EXTT15=
EXTT16=
EXTT17=
PLAYORDER=
